# xmcd CD database file
#
# Track frame offsets:
#	150
#	32738
#	56315
#	79578
#	100667
#	119555
#	147713
#	162800
#	181028
#	201234
#	225013
#
# Disc length: 3562 seconds
#
# Revision: 2
# Processed by: cddbd v1.4b41PL1 Copyright (c) Steve Scherf et al.
# Submitted via: Feurio! 1.50.2ß - http://www.feurio.com
#
DISCID=830de80b
DTITLE=Blue Rodeo - Five Days in July
DYEAR=1900
DGENRE=
TTITLE0=Five Days in May
TTITLE1=Hasn't hit  me yet
TTITLE2=Bad timing
TTITLE3=Cynthia
TTITLE4=Photograph
TTITLE5=What is this love
TTITLE6=English Bay
TTITLE7=Head over hheels
TTITLE8=Til I  gain control  again
TTITLE9=Daark angel
TTITLE10=Know where you go/Tell me  your dream
EXTD=
EXTT0=
EXTT1=
EXTT2=
EXTT3=
EXTT4=
EXTT5=
EXTT6=
EXTT7=
EXTT8=
EXTT9=
EXTT10=
PLAYORDER=
